<?xml version="1.0" encoding="utf-8"?>
<!-- Generator: Adobe Illustrator 27.3.1, SVG Export Plug-In . SVG Version: 6.00 Build 0)  -->
<svg version="1.1" id="Layer_1" xmlns="http://www.w3.org/2000/svg" xmlns:xlink="http://www.w3.org/1999/xlink" x="0px" y="0px"
	 viewBox="0 0 500 500" style="enable-background:new 0 0 500 500;" xml:space="preserve">
<style type="text/css">
	.st0{display:none;}
	.st1{display:inline;}
</style>
<g class="st0">
	<g class="st1">
		<path d="M474.1,378.1c-7.6,0-15.2,0.1-22.7-0.1c-3-0.1-3.6,1-3.6,3.7c0.2,6.6,0,13.1,0.1,19.7c0,2.3-0.7,3-3,3
			c-6.7-0.1-13.4-0.2-20.1,0c-2.9,0.1-3.3-1.1-3.3-3.6c0.1-6.1-0.2-12.3,0.1-18.4c0.2-3.8-1.1-4.5-4.6-4.5
			c-58.8,0.1-117.5,0.1-176.3,0c-3.2,0-4.7,0.9-6.2,3.9c-7.2,14.5-19.2,22.3-35.3,22.3s-28.1-7.7-35.3-22.2c-1.4-2.9-2.8-4-6.1-3.9
			c-42.4,0.1-84.9,0-127.3,0.2c-3.4,0-4.7-0.5-4.7-4.4c0.2-49,0.1-98,0.1-147c0-3.9,0.3-7.9,1.4-11.7c5.4-18.8,20.1-29.6,40.4-29.6
			c67.7,0,135.3,0,203,0c25.4,0,44.9,10.7,58.6,31.9c20.8,32.3,41.6,64.7,62.4,97.1c1.2,1.9,1.8,3.8,1.8,6.1
			c-0.1,8.9,0.1,17.8-0.1,26.7c-0.1,3.6,0.8,4.6,4.5,4.6c25.4-0.2,50.8-0.1,76.1-0.1C474.1,360.6,474.1,369.4,474.1,378.1z
			 M91.6,347.9c0,2.8,0.4,4.1,3.7,4c15.2-0.2,30.3-0.1,45.5,0c2.6,0,3.5-0.6,3.5-3.4c-0.1-29.9-0.1-59.8,0-89.7
			c0-2.8-0.9-3.4-3.5-3.4c-15,0.1-30,0.2-45.1,0c-3.2,0-4.2,0.7-4.1,4.1c0.2,14.9,0.1,29.7,0.1,44.6
			C91.6,318.8,91.7,333.3,91.6,347.9z M283,281.9c3.1,0,4-0.9,3.8-3.9c-0.2-6.1-0.2-12.3,0-18.4c0.1-3.2-0.7-4.2-4-4.2
			c-20,0.2-39.9,0.1-59.9,0.1c-12,0-23.9,0.1-35.9-0.1c-2.9,0-3.7,0.9-3.6,3.7c0.2,6.1,0.2,12.3,0,18.4c-0.1,3.3,0.7,4.4,4.3,4.4
			c15.9-0.2,31.8-0.1,47.7-0.1S267.2,281.8,283,281.9z M186.2,364.9c-0.1,7.1,5.8,13.1,13,13.2c7.1,0.1,13.1-5.8,13.2-13
			c0.1-7.1-5.8-13.1-13-13.2S186.2,357.7,186.2,364.9z"/>
	</g>
	<path class="st1" d="M56,138.6c3.6,3.4,6.5,5.9,9.1,8.6c4.3,4.5,4.5,9.5,0.8,13.2c-3.7,3.7-8.8,3.6-13.2-0.7
		c-7.9-7.7-15.6-15.5-23.3-23.3c-4.8-4.9-4.6-9.4,0.3-14.4c7.5-7.6,15-15.1,22.6-22.6c4.7-4.6,9.7-5,13.6-1.2
		c3.8,3.7,3.4,8.9-1.1,13.6c-2.5,2.6-5.2,5-8.8,8.4c121.4,0,241.2,0,362.1,0c-3-3.1-5.6-5.8-8.1-8.4c-4.4-4.6-4.7-9.9-0.9-13.6
		c3.8-3.6,8.7-3.3,13.2,1c7.7,7.6,15.4,15.2,22.9,23c4.9,5,4.9,9.5,0.1,14.4c-7.6,7.7-15.2,15.4-22.9,23c-4.6,4.5-9.8,4.8-13.6,0.9
		c-3.6-3.7-3.3-8.8,1-13.2c2.6-2.6,5.5-4.9,8.2-7.3c-0.2-0.4-0.5-0.8-0.7-1.2C297.3,138.6,177.4,138.6,56,138.6z"/>
</g>
<g class="st0">
	<path class="st1" d="M443.7,403.6c0,2.5,0,5,0,7.6c-0.8,2.2-1.4,4.5-2.5,6.6c-5.3,10.5-14,14.7-25.6,14.7
		c-110.5-0.1-221,0-331.6-0.1c-1.6,0-3.3,0-4.9-0.2C63.7,431,53,415.6,57.2,400.8c17.3-61.1,34.6-122.2,51.7-183.3
		c4.5-16,9.3-31.9,13.2-48.1c2.8-11.4,13.2-18.6,26.3-18.6c16.4-0.1,32.8-0.1,49.2,0c2.7,0,3.3-0.5,2-3.1
		c-4.3-8.2-6.1-17.1-5.7-26.3c1.3-34,31.4-58.6,65.1-53.5c30.8,4.7,52.1,34.9,46.2,65.4c-1.1,6-3.4,11.5-6,17.5c1.9,0,3.2,0,4.6,0
		c15.1,0,30.3,0,45.4,0c10.7,0,19.1,4.1,24.5,13.5c2.2,3.8,2.6,8.1,3.7,12.2c19.3,66.8,38.6,133.6,58,200.3
		C438.2,385.9,440.3,395,443.7,403.6z M255.9,294.3c0,9-0.2,17.9,0,26.9c0.5,15.1,8,25.5,21.9,30.4c7,2.5,14.4,2.6,21.7,2.1
		c16.8-1.2,28.3-10.9,31.2-26.8c1.8-9.7,1-19.6,0.8-29.5c-0.1-4.2-2.8-6.4-7.4-6.4c-8.5-0.1-16.9-0.1-25.4,0c-4.8,0-7.8,3.2-7.7,8.3
		c0,4.9,2.8,8.1,7.4,8.2c3.3,0.1,6.6,0.1,9.8,0c1.6,0,2.3,0.4,2.3,2.1c-0.1,3.7,0.1,7.3-0.2,11c-1,9.7-7.3,15.1-17.1,15
		c-9.7-0.1-15.7-5.5-16.2-15.3c-0.7-17.3-0.7-34.6,0-51.8c0.3-7.6,4.4-12.7,10.7-14.4c4.2-1.1,8.5-1,12.7,0.2
		c5.1,1.5,8.1,4.9,9.2,10c0.4,1.7,0.6,3.5,0.8,5.2c0.4,2.8,1.9,4.5,4.6,5.4c2.3,0.8,4.7,0.9,7.1,0.8c6.6-0.3,9.2-2.8,9.3-9.3
		c0.2-10.5-4.1-18.9-12.9-24.6c-11-7.1-23.2-8.4-35.7-6c-16.9,3.2-26.5,14.7-27,32C255.7,276.6,255.9,285.4,255.9,294.3z M199.5,304
		c1.5,0.8,2,2.2,2.7,3.3c9.1,13.8,18.2,27.6,27.3,41.3c4,6,9,6.7,15.6,2.3c5.5-3.6,6.2-7.9,2.3-13.8c-10.6-16.1-21.1-32.3-31.8-48.3
		c-1.5-2.3-1.5-3.7,0.2-5.8c8.5-10.4,16.9-21,25.3-31.6c1.7-2.1,3.3-4.3,2.6-7.2c-1.3-5.1-5.1-7.7-9.7-9.2c-4.3-1.4-7,1.2-9.4,4.5
		c-10.3,14.2-20.7,28.3-31.1,42.4c-0.6,0.8-0.8,2.2-2.5,2c0-13.5,0-27,0-40.5c0-5.2-1.3-7-6.4-8.2c-2.8-0.7-5.7-0.7-8.6,0.1
		c-4.7,1.4-5.9,2.8-5.9,7.8c0,33.7,0,67.4,0,101c0,4.9,1.5,6.8,6.2,8.1c2.9,0.8,5.7,0.8,8.6,0c4.7-1.3,6.1-3.2,6.1-8.1
		c0-8.8,0-17.7,0-26.5c0-1.5-0.1-2.9,1-4.3C194.5,310.3,197,307.1,199.5,304z"/>
</g>
<g>
	<path d="M398.8,367c-18.1,0-36.2,0-54.2,0c-1.6,0-2.6,0.4-3.7,1.7c-6.4,7.6-14.8,11.4-24.5,11.5c-26.3,0.2-52.5,0.1-78.8,0.1
		c-4,0-8,0.1-12,0c-1.7-0.1-2.1,0.5-2.3,2.1c-1.5,15.4-8.1,28.3-20,38.3c-24.9,20.9-59.9,16.5-79.5-5.6
		c-8.2-9.3-12.8-20.2-13.6-32.6c-0.1-1.7-0.6-2.2-2.3-2.2c-24.9,0.1-49.9,0.1-74.8,0.1c-9.8,0-18.1-3.3-24.8-10.5
		c-5.3-5.7-8.1-12.5-8.2-20.3c-0.1-14.8-0.2-29.7,0.1-44.5c0.4-17.7,15.8-32,34.1-32.2c11.3-0.1,22.6,0,33.9,0c2.5,0,2.5,0,2.5-2.5
		c0-2.7-0.1-5.5,0-8.2c0.1-1.7-0.6-2-2.1-2c-6.6,0.2-13.2,0.3-19.8,0.4c-7.3,0.1-12.7-3.2-16.3-9.4c-2.8-4.8-3.2-9.8-0.5-14.9
		c1.5-2.8,3.9-4.7,6.8-5.8c1-0.4,1.6-0.9,2-2c7.5-21.5,14.9-43,22.5-64.4c6.7-18.9,13.1-38,20.1-56.8c1.6-4.3,3-8.6,4.4-13
		c0.2-0.7,0.5-1.3,0-2c-5.6-7.7-1.4-18.4,7.4-23.1c9-4.8,17.9-4.2,26.1,1.5c10.9,7.4,21.4,15.4,32.1,23.2c15,11,30.1,22,45,33.2
		c15.2,11.4,30.4,22.7,45.4,34.3c15.2,11.8,30.6,23.5,45.8,35.3c5.7,4.5,11.8,8.6,17.1,13.6c8.5,8.2,10.9,20.3,6.2,31
		c-5.2,11.7-14.3,17.8-27,18.3c-4.5,0.2-9,0.1-13.5,0c-1.5,0-1.8,0.5-1.8,1.9c0.1,3,0.1,6,0,8.9c-0.1,1.9,0.5,2.5,2.4,2.5
		c11.6-0.1,23.2,0,34.8-0.1c5.9,0,11.8-0.1,17.5,2.1c14.3,5.5,22.9,18.2,22.7,32.6c-0.1,5.1-0.1,5.1,5,5.1c16.6,0,33.2,0,49.9,0
		c6.2,0,10.8,4.4,10.8,10.6c0.1,7.7,0.1,15.4,0,23c0,1.5,0.4,2,1.9,2c19.3-0.1,38.6-0.1,57.9,0c2,0,2.6-0.6,2.5-2.6
		c-0.1-2.1,0-4.2,0.1-6.3c0.3-6.3,5.3-11.1,11.4-11.3c6.6-0.2,11.8,4.3,12.3,10.7c0.4,5.9,0.3,11.8,0,17.7
		c-0.4,6.1-5,10.4-11.2,10.5c-3.7,0.1-7.4,0.1-11,0c-1.7-0.1-2.1,0.4-2.1,2.1c0.1,12.9,0.1,25.8,0,38.6c-0.1,7.7-7.9,12.3-14.6,8.7
		c-3.7-2-5.1-5.5-5.1-9.6c0-12.6-0.1-25.2,0-37.9c0-2-0.6-2.4-2.5-2.4c-18.1,0.1-36.3,0-54.4,0C398.8,366.7,398.8,366.8,398.8,367z
		 M157,232.2C157,232.2,157,232.2,157,232.2c16.7,0,33.4,0,50.1,0c2.2,0,4.4-0.3,6.6-0.8c7.2-1.7,11.9-7.9,11.3-15.2
		c-0.6-7.2-4.7-12.5-10.1-16.8c-16.6-13.4-33.3-26.8-50-40.1c-7.8-6.2-15.4-12.7-23.6-18.2c-3.7-2.5-7.7-4-12.2-4.6
		c-11.8-1.6-24,5.5-27.5,16.4c-5.6,17.4-11.2,34.8-15.8,52.4c-1.8,6.8-0.6,13.4,4,19c4.3,5.3,10.1,7.9,16.8,8
		C123.4,232.3,140.2,232.2,157,232.2z M166.9,412.8c19.5,0,35.1-15.9,35.2-35.7c0-19-14.9-33.7-34.3-33.7
		c-19.5,0-35.7,15.8-35.9,34.5C131.8,398.6,149.7,413.3,166.9,412.8z M275.3,304.1C275.3,304.2,275.3,304.2,275.3,304.1
		c-1.6,0-3.3,0-4.9,0c-7.9,0-15.7-0.1-23.6,0c-6.6,0.1-11.1,4.4-11.2,10.7c0,8.5-0.1,17,0,25.5c0,7.4,4.3,11.6,11.8,11.6
		c18.6,0,37.1,0,55.7,0c7.5,0,11.8-4.3,11.8-11.8c0-7.9,0-15.8,0-23.8c0-7.8-4.4-12.2-12.1-12.2
		C293.7,304.1,284.5,304.1,275.3,304.1z M170.3,272.7C170.3,272.7,170.3,272.7,170.3,272.7c12.5,0,25,0,37.5,0
		c14.6,0,29.2-0.1,43.8,0c1.9,0,2.6-0.4,2.5-2.4c-0.2-2.6,0-5.2,0-7.8c0-3.5,0.2-3-2.9-3c-29.7,0-59.5,0-89.2,0
		c-23.9,0-47.8,0.2-71.7,0.3c-3.4,0-3.1-0.5-3.1,3.2c0,2.5,0.1,5.1,0,7.6c-0.1,1.7,0.5,2.1,2.2,2.1
		C116.3,272.7,143.3,272.7,170.3,272.7z M62.6,349.5c12.7-0.1,22.5-10,22.5-22.6c0-12.3-10.1-22.2-22.4-22.1
		c-12.6,0.1-22.6,10.4-22.6,23.1C40.2,340.2,49.9,349.6,62.6,349.5z M372.5,328.5C372.5,328.5,372.5,328.5,372.5,328.5
		c-7.5,0-15.1,0-22.6,0c-1.6,0-2,0.5-2,2c0.1,5.2,0.1,10.4,0,15.6c0,1.6,0.5,2,2.1,2c9.8-0.1,19.5,0,29.3,0c5.2,0,10.4,0,15.6,0
		c1.6,0,2.3-0.4,2.3-2.2c-0.1-5.1-0.1-10.3,0.1-15.4c0-1.7-0.6-2-2.1-2C387.6,328.5,380.1,328.5,372.5,328.5z"/>
	<path d="M275.2,341.4c-7.9,0-15.7,0-23.6,0c-3.8,0-4.9-1.2-4.9-4.9c0-5.6,0-11.3,0.1-16.9c0-3.6,1.4-4.9,5-4.9
		c15.7,0,31.5,0,47.2,0c3.6,0,4.9,1.2,4.9,4.7c0.1,5.8,0.1,11.5,0,17.3c0,3.5-1.2,4.7-4.7,4.7C291.1,341.4,283.2,341.4,275.2,341.4
		C275.2,341.4,275.2,341.4,275.2,341.4z"/>
	<path d="M62.3,315.9c6.3,0,11,5,11,11.5c0,6.1-5,11.1-11.1,11.1c-6.3,0-11.2-4.8-11.3-11.1C50.9,320.9,55.8,315.9,62.3,315.9z"/>
</g>
</svg>
